<svg xmlns="http://www.w3.org/2000/svg" viewBox="0 0 800 600" width="800" height="600">
  <defs>
    <linearGradient id="bg" x1="0%" y1="0%" x2="100%" y2="100%">
      <stop offset="0%" stop-color="#040b1e"/>
      <stop offset="50%" stop-color="#061334"/>
      <stop offset="100%" stop-color="#020716"/>
    </linearGradient>
    <linearGradient id="cardGrad" x1="0%" y1="0%" x2="0%" y2="100%">
      <stop offset="0%" stop-color="#0f2354"/>
      <stop offset="100%" stop-color="#0a193c"/>
    </linearGradient>
    <linearGradient id="cyanGrad" x1="0%" y1="0%" x2="100%" y2="0%">
      <stop offset="0%" stop-color="#00bfff"/>
      <stop offset="100%" stop-color="#3b82f6"/>
    </linearGradient>
    <linearGradient id="purpleGrad" x1="0%" y1="0%" x2="100%" y2="0%">
      <stop offset="0%" stop-color="#8b5cf6"/>
      <stop offset="100%" stop-color="#ec4899"/>
    </linearGradient>
    <linearGradient id="greenGrad" x1="0%" y1="0%" x2="100%" y2="0%">
      <stop offset="0%" stop-color="#10b981"/>
      <stop offset="100%" stop-color="#059669"/>
    </linearGradient>
    <linearGradient id="orangeGrad" x1="0%" y1="0%" x2="100%" y2="0%">
      <stop offset="0%" stop-color="#f59e0b"/>
      <stop offset="100%" stop-color="#d97706"/>
    </linearGradient>
    <filter id="glow-subtle" x="-10%" y="-10%" width="120%" height="120%">
      <feDropShadow dx="0" dy="8" stdDeviation="16" flood-color="#00bfff" flood-opacity="0.18"/>
    </filter>
  </defs>

  <!-- Background -->
  <rect width="800" height="600" fill="url(#bg)"/>

  
    <!-- Circuit lines in bg -->
    <path d="M 30 100 L 90 100 L 120 70 L 200 70" stroke="#0ea5e9" stroke-width="1.5" stroke-opacity="0.35" fill="none"/>
    <circle cx="200" cy="70" r="3" fill="#38bdf8"/>
    <path d="M 770 120 L 710 120 L 680 90 L 620 90" stroke="#0ea5e9" stroke-width="1.5" stroke-opacity="0.35" fill="none"/>
    <circle cx="620" cy="90" r="3" fill="#38bdf8"/>
    <path d="M 40 500 L 100 500 L 130 530 L 220 530" stroke="#0ea5e9" stroke-width="1.5" stroke-opacity="0.35" fill="none"/>
    <circle cx="220" cy="530" r="3" fill="#38bdf8"/>
    <path d="M 760 480 L 700 480 L 670 510 L 590 510" stroke="#0ea5e9" stroke-width="1.5" stroke-opacity="0.35" fill="none"/>
    <circle cx="590" cy="510" r="3" fill="#38bdf8"/>

    <!-- Main Window Mockup -->
    <rect x="50" y="40" width="700" height="520" rx="16" fill="#081432" stroke="#00bfff" stroke-width="1.5" filter="url(#glow-subtle)"/>
    <rect x="50" y="40" width="700" height="42" rx="16" fill="#0c1e4a"/>
    <rect x="50" y="70" width="700" height="12" fill="#0c1e4a"/>

    <!-- Window Dots -->
    <circle cx="75" cy="61" r="5" fill="#ef4444"/>
    <circle cx="92" cy="61" r="5" fill="#f59e0b"/>
    <circle cx="109" cy="61" r="5" fill="#10b981"/>

    <!-- App Title & Badges -->
    <text x="135" y="66" fill="#ffffff" font-family="Inter, system-ui, sans-serif" font-weight="700" font-size="13">CUSTOMER SUPPORT HELPDESK</text>
    <rect x="540" y="50" width="80" height="22" rx="11" fill="#0284c7" fill-opacity="0.25" stroke="#38bdf8" stroke-width="0.8"/>
    <text x="580" y="65" fill="#38bdf8" font-family="Inter, sans-serif" font-size="10" font-weight="600" text-anchor="middle">ACTIVE</text>
    <rect x="630" y="50" width="105" height="22" rx="11" fill="#1e293b"/>
    <text x="682" y="65" fill="#94a3b8" font-family="Inter, sans-serif" font-size="10" text-anchor="middle">Omnichannel Service</text>
    
  <!-- Top Stat Cards -->
  <g transform="translate(70, 95)">
    <rect width="150" height="70" rx="8" fill="url(#cardGrad)" stroke="#1e3a8a" stroke-width="1"/>
    <text x="12" y="25" fill="#94a3b8" font-family="Inter, sans-serif" font-size="10">Active Tickets</text>
    <text x="12" y="52" fill="#ffffff" font-family="Inter, sans-serif" font-size="18" font-weight="700">24 Open</text>

    <rect x="165" width="150" height="70" rx="8" fill="url(#cardGrad)" stroke="#1e3a8a" stroke-width="1"/>
    <text x="177" y="25" fill="#94a3b8" font-family="Inter, sans-serif" font-size="10">First Response Time</text>
    <text x="177" y="52" fill="#10b981" font-family="Inter, sans-serif" font-size="18" font-weight="700">1.4 Mins</text>

    <rect x="330" width="150" height="70" rx="8" fill="url(#cardGrad)" stroke="#1e3a8a" stroke-width="1"/>
    <text x="342" y="25" fill="#94a3b8" font-family="Inter, sans-serif" font-size="10">CSAT Score</text>
    <text x="342" y="52" fill="#38bdf8" font-family="Inter, sans-serif" font-size="18" font-weight="700">4.9 / 5.0</text>

    <rect x="495" width="165" height="70" rx="8" fill="url(#cardGrad)" stroke="#1e3a8a" stroke-width="1"/>
    <text x="507" y="25" fill="#94a3b8" font-family="Inter, sans-serif" font-size="10">AI Auto-Resolution</text>
    <text x="507" y="52" fill="#ffffff" font-family="Inter, sans-serif" font-size="18" font-weight="700">76.4%</text>
  </g>

  <!-- Left: Ticket Queue & Right: Live Chat Screen -->
  <g transform="translate(70, 180)">
    <rect width="380" height="355" rx="10" fill="url(#cardGrad)" stroke="#1e3a8a" stroke-width="1"/>
    <text x="15" y="28" fill="#ffffff" font-family="Inter, sans-serif" font-size="13" font-weight="700">Live Support Tickets Queue</text>

    <!-- Ticket 1 -->
    <rect x="15" y="45" width="350" height="65" rx="6" fill="#081432"/>
    <circle cx="35" cy="77" r="14" fill="#0284c7"/>
    <text x="35" y="81" fill="#ffffff" font-family="Inter, sans-serif" font-size="9" font-weight="700" text-anchor="middle">WA</text>
    <text x="60" y="68" fill="#ffffff" font-family="Inter, sans-serif" font-size="11" font-weight="600">Payment webhook timeout</text>
    <text x="60" y="85" fill="#94a3b8" font-family="Inter, sans-serif" font-size="10">WhatsApp • User: Liam Vance</text>
    <rect x="275" y="65" width="80" height="20" rx="4" fill="#ef4444" fill-opacity="0.2"/>
    <text x="315" y="79" fill="#ef4444" font-family="Inter, sans-serif" font-size="9" font-weight="700" text-anchor="middle">URGENT</text>

    <!-- Ticket 2 -->
    <rect x="15" y="120" width="350" height="65" rx="6" fill="#081432"/>
    <circle cx="35" cy="152" r="14" fill="#10b981"/>
    <text x="35" y="156" fill="#ffffff" font-family="Inter, sans-serif" font-size="9" font-weight="700" text-anchor="middle">EM</text>
    <text x="60" y="143" fill="#ffffff" font-family="Inter, sans-serif" font-size="11" font-weight="600">Upgrade to Enterprise Plan</text>
    <text x="60" y="160" fill="#94a3b8" font-family="Inter, sans-serif" font-size="10">Email • User: Rachel Green</text>
    <rect x="275" y="140" width="80" height="20" rx="4" fill="#10b981" fill-opacity="0.2"/>
    <text x="315" y="154" fill="#10b981" font-family="Inter, sans-serif" font-size="9" font-weight="700" text-anchor="middle">SALES LEAD</text>

    <!-- Ticket 3 -->
    <rect x="15" y="195" width="350" height="65" rx="6" fill="#081432"/>
    <circle cx="35" cy="227" r="14" fill="#6366f1"/>
    <text x="35" y="231" fill="#ffffff" font-family="Inter, sans-serif" font-size="9" font-weight="700" text-anchor="middle">WB</text>
    <text x="60" y="218" fill="#ffffff" font-family="Inter, sans-serif" font-size="11" font-weight="600">KYC verification document</text>
    <text x="60" y="235" fill="#94a3b8" font-family="Inter, sans-serif" font-size="10">Live Web Chat • User: David Lee</text>
    <rect x="275" y="215" width="80" height="20" rx="4" fill="#0284c7" fill-opacity="0.2"/>
    <text x="315" y="229" fill="#38bdf8" font-family="Inter, sans-serif" font-size="9" font-weight="700" text-anchor="middle">IN PROGRESS</text>

    <!-- Omnichannel badges bar -->
    <rect x="15" y="275" width="350" height="60" rx="6" fill="#081432"/>
    <text x="25" y="298" fill="#38bdf8" font-family="Inter, sans-serif" font-size="10" font-weight="700">CONNECTED CHANNELS</text>
    <text x="25" y="318" fill="#94a3b8" font-family="Inter, sans-serif" font-size="10">WhatsApp • Live Web Chat • Email • In-App Voice</text>

    <!-- Right: AI Agent Co-Pilot -->
    <rect x="395" width="265" height="355" rx="10" fill="url(#cardGrad)" stroke="#1e3a8a" stroke-width="1"/>
    <text x="410" y="28" fill="#ffffff" font-family="Inter, sans-serif" font-size="13" font-weight="700">AI Support Co-Pilot</text>

    <rect x="410" y="45" width="235" height="150" rx="6" fill="#081432"/>
    <text x="420" y="68" fill="#38bdf8" font-family="Inter, sans-serif" font-size="10" font-weight="600">Suggested Smart Reply</text>
    <rect x="420" y="80" width="215" height="65" rx="4" fill="#0c1e4a"/>
    <text x="430" y="100" fill="#e2e8f0" font-family="Inter, sans-serif" font-size="9">"Hello Liam! I have verified your</text>
    <text x="430" y="115" fill="#e2e8f0" font-family="Inter, sans-serif" font-size="9">webhook payload. The transaction was</text>
    <text x="430" y="130" fill="#e2e8f0" font-family="Inter, sans-serif" font-size="9">settled successfully (ID #89201)."</text>
    <rect x="420" y="155" width="215" height="28" rx="4" fill="url(#cyanGrad)"/>
    <text x="527" y="173" fill="#ffffff" font-family="Inter, sans-serif" font-size="10" font-weight="700" text-anchor="middle">APPROVE &amp; SEND (AI)</text>

    <rect x="410" y="205" width="235" height="130" rx="6" fill="#081432"/>
    <text x="420" y="228" fill="#ffffff" font-family="Inter, sans-serif" font-size="11" font-weight="600">SLA &amp; Knowledge Base</text>
    <text x="420" y="250" fill="#10b981" font-family="Inter, sans-serif" font-size="10">✓ SLA Compliance: 99.8%</text>
    <text x="420" y="272" fill="#38bdf8" font-family="Inter, sans-serif" font-size="10">✓ 420 Help Center Articles</text>
    <text x="420" y="294" fill="#94a3b8" font-family="Inter, sans-serif" font-size="10">✓ Multi-Language Translation</text>
  </g>

</svg>