<svg xmlns="http://www.w3.org/2000/svg" viewBox="0 0 800 600" width="800" height="600">
  <defs>
    <linearGradient id="bg" x1="0%" y1="0%" x2="100%" y2="100%">
      <stop offset="0%" stop-color="#040b1e"/>
      <stop offset="50%" stop-color="#061334"/>
      <stop offset="100%" stop-color="#020716"/>
    </linearGradient>
    <linearGradient id="cardGrad" x1="0%" y1="0%" x2="0%" y2="100%">
      <stop offset="0%" stop-color="#0f2354"/>
      <stop offset="100%" stop-color="#0a193c"/>
    </linearGradient>
    <linearGradient id="cyanGrad" x1="0%" y1="0%" x2="100%" y2="0%">
      <stop offset="0%" stop-color="#00bfff"/>
      <stop offset="100%" stop-color="#3b82f6"/>
    </linearGradient>
    <linearGradient id="purpleGrad" x1="0%" y1="0%" x2="100%" y2="0%">
      <stop offset="0%" stop-color="#8b5cf6"/>
      <stop offset="100%" stop-color="#ec4899"/>
    </linearGradient>
    <linearGradient id="greenGrad" x1="0%" y1="0%" x2="100%" y2="0%">
      <stop offset="0%" stop-color="#10b981"/>
      <stop offset="100%" stop-color="#059669"/>
    </linearGradient>
    <linearGradient id="orangeGrad" x1="0%" y1="0%" x2="100%" y2="0%">
      <stop offset="0%" stop-color="#f59e0b"/>
      <stop offset="100%" stop-color="#d97706"/>
    </linearGradient>
    <filter id="glow-subtle" x="-10%" y="-10%" width="120%" height="120%">
      <feDropShadow dx="0" dy="8" stdDeviation="16" flood-color="#00bfff" flood-opacity="0.18"/>
    </filter>
  </defs>

  <!-- Background -->
  <rect width="800" height="600" fill="url(#bg)"/>

  
    <!-- Circuit lines in bg -->
    <path d="M 30 100 L 90 100 L 120 70 L 200 70" stroke="#0ea5e9" stroke-width="1.5" stroke-opacity="0.35" fill="none"/>
    <circle cx="200" cy="70" r="3" fill="#38bdf8"/>
    <path d="M 770 120 L 710 120 L 680 90 L 620 90" stroke="#0ea5e9" stroke-width="1.5" stroke-opacity="0.35" fill="none"/>
    <circle cx="620" cy="90" r="3" fill="#38bdf8"/>
    <path d="M 40 500 L 100 500 L 130 530 L 220 530" stroke="#0ea5e9" stroke-width="1.5" stroke-opacity="0.35" fill="none"/>
    <circle cx="220" cy="530" r="3" fill="#38bdf8"/>
    <path d="M 760 480 L 700 480 L 670 510 L 590 510" stroke="#0ea5e9" stroke-width="1.5" stroke-opacity="0.35" fill="none"/>
    <circle cx="590" cy="510" r="3" fill="#38bdf8"/>

    <!-- Main Window Mockup -->
    <rect x="50" y="40" width="700" height="520" rx="16" fill="#081432" stroke="#00bfff" stroke-width="1.5" filter="url(#glow-subtle)"/>
    <rect x="50" y="40" width="700" height="42" rx="16" fill="#0c1e4a"/>
    <rect x="50" y="70" width="700" height="12" fill="#0c1e4a"/>

    <!-- Window Dots -->
    <circle cx="75" cy="61" r="5" fill="#ef4444"/>
    <circle cx="92" cy="61" r="5" fill="#f59e0b"/>
    <circle cx="109" cy="61" r="5" fill="#10b981"/>

    <!-- App Title & Badges -->
    <text x="135" y="66" fill="#ffffff" font-family="Inter, system-ui, sans-serif" font-weight="700" font-size="13">INVENTORY & WAREHOUSE MANAGEMENT</text>
    <rect x="540" y="50" width="80" height="22" rx="11" fill="#0284c7" fill-opacity="0.25" stroke="#38bdf8" stroke-width="0.8"/>
    <text x="580" y="65" fill="#38bdf8" font-family="Inter, sans-serif" font-size="10" font-weight="600" text-anchor="middle">ACTIVE</text>
    <rect x="630" y="50" width="105" height="22" rx="11" fill="#1e293b"/>
    <text x="682" y="65" fill="#94a3b8" font-family="Inter, sans-serif" font-size="10" text-anchor="middle">Supply Chain</text>
    
  <!-- Top Stat Cards -->
  <g transform="translate(70, 95)">
    <rect width="150" height="70" rx="8" fill="url(#cardGrad)" stroke="#1e3a8a" stroke-width="1"/>
    <text x="12" y="25" fill="#94a3b8" font-family="Inter, sans-serif" font-size="10">Total SKUs Tracked</text>
    <text x="12" y="52" fill="#ffffff" font-family="Inter, sans-serif" font-size="18" font-weight="700">18,450</text>

    <rect x="165" width="150" height="70" rx="8" fill="url(#cardGrad)" stroke="#1e3a8a" stroke-width="1"/>
    <text x="177" y="25" fill="#94a3b8" font-family="Inter, sans-serif" font-size="10">Stock Valuation</text>
    <text x="177" y="52" fill="#38bdf8" font-family="Inter, sans-serif" font-size="18" font-weight="700">$2.84M</text>

    <rect x="330" width="150" height="70" rx="8" fill="url(#cardGrad)" stroke="#1e3a8a" stroke-width="1"/>
    <text x="342" y="25" fill="#94a3b8" font-family="Inter, sans-serif" font-size="10">Fulfillment Rate</text>
    <text x="342" y="52" fill="#10b981" font-family="Inter, sans-serif" font-size="18" font-weight="700">99.1%</text>

    <rect x="495" width="165" height="70" rx="8" fill="url(#cardGrad)" stroke="#1e3a8a" stroke-width="1"/>
    <text x="507" y="25" fill="#94a3b8" font-family="Inter, sans-serif" font-size="10">Low Stock Alerts</text>
    <text x="507" y="52" fill="#ef4444" font-family="Inter, sans-serif" font-size="18" font-weight="700">12 SKUs</text>
  </g>

  <!-- Stock Levels Table & Warehouse Map -->
  <g transform="translate(70, 180)">
    <rect width="400" height="355" rx="10" fill="url(#cardGrad)" stroke="#1e3a8a" stroke-width="1"/>
    <text x="15" y="28" fill="#ffffff" font-family="Inter, sans-serif" font-size="13" font-weight="700">Real-Time Stock Inventory</text>

    <!-- Table Header -->
    <rect x="15" y="42" width="370" height="25" rx="4" fill="#081432"/>
    <text x="25" y="58" fill="#64748b" font-family="Inter, sans-serif" font-size="10" font-weight="600">PRODUCT / SKU</text>
    <text x="175" y="58" fill="#64748b" font-family="Inter, sans-serif" font-size="10" font-weight="600">CATEGORY</text>
    <text x="270" y="58" fill="#64748b" font-family="Inter, sans-serif" font-size="10" font-weight="600">STOCK</text>
    <text x="340" y="58" fill="#64748b" font-family="Inter, sans-serif" font-size="10" font-weight="600">STATUS</text>

    <!-- Item 1 -->
    <text x="25" y="90" fill="#e2e8f0" font-family="Inter, sans-serif" font-size="11" font-weight="600">Smart Terminal Pro X</text>
    <text x="175" y="90" fill="#94a3b8" font-family="Inter, sans-serif" font-size="11">Hardware</text>
    <text x="270" y="90" fill="#ffffff" font-family="Inter, sans-serif" font-size="11" font-weight="700">1,420</text>
    <rect x="330" y="77" width="50" height="18" rx="4" fill="#10b981" fill-opacity="0.2"/>
    <text x="355" y="90" fill="#10b981" font-family="Inter, sans-serif" font-size="9" font-weight="700" text-anchor="middle">OPTIMAL</text>
    <line x1="15" y1="104" x2="385" y2="104" stroke="#1e293b" stroke-width="1"/>

    <!-- Item 2 -->
    <text x="25" y="128" fill="#e2e8f0" font-family="Inter, sans-serif" font-size="11" font-weight="600">Wireless Sensor Pod</text>
    <text x="175" y="128" fill="#94a3b8" font-family="Inter, sans-serif" font-size="11">IoT Nodes</text>
    <text x="270" y="128" fill="#ffffff" font-family="Inter, sans-serif" font-size="11" font-weight="700">2,850</text>
    <rect x="330" y="115" width="50" height="18" rx="4" fill="#10b981" fill-opacity="0.2"/>
    <text x="355" y="128" fill="#10b981" font-family="Inter, sans-serif" font-size="9" font-weight="700" text-anchor="middle">OPTIMAL</text>
    <line x1="15" y1="142" x2="385" y2="142" stroke="#1e293b" stroke-width="1"/>

    <!-- Item 3 -->
    <text x="25" y="166" fill="#e2e8f0" font-family="Inter, sans-serif" font-size="11" font-weight="600">Biometric POS Scanner</text>
    <text x="175" y="166" fill="#94a3b8" font-family="Inter, sans-serif" font-size="11">Devices</text>
    <text x="270" y="166" fill="#ef4444" font-family="Inter, sans-serif" font-size="11" font-weight="700">18</text>
    <rect x="330" y="153" width="50" height="18" rx="4" fill="#ef4444" fill-opacity="0.2"/>
    <text x="355" y="166" fill="#ef4444" font-family="Inter, sans-serif" font-size="9" font-weight="700" text-anchor="middle">LOW</text>
    <line x1="15" y1="180" x2="385" y2="180" stroke="#1e293b" stroke-width="1"/>

    <!-- Item 4 -->
    <text x="25" y="204" fill="#e2e8f0" font-family="Inter, sans-serif" font-size="11" font-weight="600">NFC Payment Cards</text>
    <text x="175" y="204" fill="#94a3b8" font-family="Inter, sans-serif" font-size="11">Supplies</text>
    <text x="270" y="204" fill="#ffffff" font-family="Inter, sans-serif" font-size="11" font-weight="700">45,000</text>
    <rect x="330" y="191" width="50" height="18" rx="4" fill="#10b981" fill-opacity="0.2"/>
    <text x="355" y="204" fill="#10b981" font-family="Inter, sans-serif" font-size="9" font-weight="700" text-anchor="middle">OPTIMAL</text>

    <!-- Auto reorder box -->
    <rect x="15" y="235" width="370" height="95" rx="6" fill="#081432"/>
    <text x="25" y="260" fill="#38bdf8" font-family="Inter, sans-serif" font-size="11" font-weight="600">Automated Supplier Reorder Engine</text>
    <text x="25" y="282" fill="#94a3b8" font-family="Inter, sans-serif" font-size="10">Auto-PO generated for POS Scanner (Qty: 500)</text>
    <rect x="25" y="295" width="120" height="22" rx="4" fill="#0284c7"/>
    <text x="85" y="310" fill="#ffffff" font-family="Inter, sans-serif" font-size="9" font-weight="700" text-anchor="middle">DISPATCHED TO VENDOR</text>

    <!-- Right: Warehouse Storage Breakdown -->
    <rect x="415" width="245" height="355" rx="10" fill="url(#cardGrad)" stroke="#1e3a8a" stroke-width="1"/>
    <text x="430" y="28" fill="#ffffff" font-family="Inter, sans-serif" font-size="13" font-weight="700">Warehouse Capacity</text>

    <rect x="430" y="50" width="215" height="65" rx="6" fill="#081432"/>
    <text x="440" y="70" fill="#94a3b8" font-family="Inter, sans-serif" font-size="10">Hub North (Dubai Central)</text>
    <rect x="440" y="80" width="195" height="8" rx="4" fill="#1e293b"/>
    <rect x="440" y="80" width="165" height="8" rx="4" fill="url(#cyanGrad)"/>
    <text x="440" y="105" fill="#38bdf8" font-family="Inter, sans-serif" font-size="9">85% Utilized • 4,800 Pallets</text>

    <rect x="430" y="125" width="215" height="65" rx="6" fill="#081432"/>
    <text x="440" y="145" fill="#94a3b8" font-family="Inter, sans-serif" font-size="10">Hub South (Abu Dhabi)</text>
    <rect x="440" y="155" width="195" height="8" rx="4" fill="#1e293b"/>
    <rect x="440" y="155" width="120" height="8" rx="4" fill="url(#cyanGrad)"/>
    <text x="440" y="180" fill="#38bdf8" font-family="Inter, sans-serif" font-size="9">62% Utilized • 2,100 Pallets</text>

    <rect x="430" y="200" width="215" height="130" rx="6" fill="#081432"/>
    <text x="440" y="225" fill="#ffffff" font-family="Inter, sans-serif" font-size="11" font-weight="600">Barcode &amp; RFID Scanner</text>
    <text x="440" y="248" fill="#10b981" font-family="Inter, sans-serif" font-size="10">100% Real-time Sync Active</text>
    <text x="440" y="270" fill="#94a3b8" font-family="Inter, sans-serif" font-size="10">Handheld Scanners: 34 Online</text>
    <rect x="440" y="285" width="195" height="24" rx="4" fill="#1e3a8a"/>
    <text x="537" y="301" fill="#38bdf8" font-family="Inter, sans-serif" font-size="10" font-weight="700" text-anchor="middle">LIVE RFID AUDIT ACTIVE</text>
  </g>

</svg>