<svg xmlns="http://www.w3.org/2000/svg" viewBox="0 0 800 600" width="800" height="600">
  <defs>
    <linearGradient id="bg" x1="0%" y1="0%" x2="100%" y2="100%">
      <stop offset="0%" stop-color="#040b1e"/>
      <stop offset="50%" stop-color="#061334"/>
      <stop offset="100%" stop-color="#020716"/>
    </linearGradient>
    <linearGradient id="cardGrad" x1="0%" y1="0%" x2="0%" y2="100%">
      <stop offset="0%" stop-color="#0f2354"/>
      <stop offset="100%" stop-color="#0a193c"/>
    </linearGradient>
    <linearGradient id="cyanGrad" x1="0%" y1="0%" x2="100%" y2="0%">
      <stop offset="0%" stop-color="#00bfff"/>
      <stop offset="100%" stop-color="#3b82f6"/>
    </linearGradient>
    <linearGradient id="purpleGrad" x1="0%" y1="0%" x2="100%" y2="0%">
      <stop offset="0%" stop-color="#8b5cf6"/>
      <stop offset="100%" stop-color="#ec4899"/>
    </linearGradient>
    <linearGradient id="greenGrad" x1="0%" y1="0%" x2="100%" y2="0%">
      <stop offset="0%" stop-color="#10b981"/>
      <stop offset="100%" stop-color="#059669"/>
    </linearGradient>
    <linearGradient id="orangeGrad" x1="0%" y1="0%" x2="100%" y2="0%">
      <stop offset="0%" stop-color="#f59e0b"/>
      <stop offset="100%" stop-color="#d97706"/>
    </linearGradient>
    <filter id="glow-subtle" x="-10%" y="-10%" width="120%" height="120%">
      <feDropShadow dx="0" dy="8" stdDeviation="16" flood-color="#00bfff" flood-opacity="0.18"/>
    </filter>
  </defs>

  <!-- Background -->
  <rect width="800" height="600" fill="url(#bg)"/>

  
    <!-- Circuit lines in bg -->
    <path d="M 30 100 L 90 100 L 120 70 L 200 70" stroke="#0ea5e9" stroke-width="1.5" stroke-opacity="0.35" fill="none"/>
    <circle cx="200" cy="70" r="3" fill="#38bdf8"/>
    <path d="M 770 120 L 710 120 L 680 90 L 620 90" stroke="#0ea5e9" stroke-width="1.5" stroke-opacity="0.35" fill="none"/>
    <circle cx="620" cy="90" r="3" fill="#38bdf8"/>
    <path d="M 40 500 L 100 500 L 130 530 L 220 530" stroke="#0ea5e9" stroke-width="1.5" stroke-opacity="0.35" fill="none"/>
    <circle cx="220" cy="530" r="3" fill="#38bdf8"/>
    <path d="M 760 480 L 700 480 L 670 510 L 590 510" stroke="#0ea5e9" stroke-width="1.5" stroke-opacity="0.35" fill="none"/>
    <circle cx="590" cy="510" r="3" fill="#38bdf8"/>

    <!-- Main Window Mockup -->
    <rect x="50" y="40" width="700" height="520" rx="16" fill="#081432" stroke="#00bfff" stroke-width="1.5" filter="url(#glow-subtle)"/>
    <rect x="50" y="40" width="700" height="42" rx="16" fill="#0c1e4a"/>
    <rect x="50" y="70" width="700" height="12" fill="#0c1e4a"/>

    <!-- Window Dots -->
    <circle cx="75" cy="61" r="5" fill="#ef4444"/>
    <circle cx="92" cy="61" r="5" fill="#f59e0b"/>
    <circle cx="109" cy="61" r="5" fill="#10b981"/>

    <!-- App Title & Badges -->
    <text x="135" y="66" fill="#ffffff" font-family="Inter, system-ui, sans-serif" font-weight="700" font-size="13">LOAN MANAGEMENT SYSTEM (LMS)</text>
    <rect x="540" y="50" width="80" height="22" rx="11" fill="#0284c7" fill-opacity="0.25" stroke="#38bdf8" stroke-width="0.8"/>
    <text x="580" y="65" fill="#38bdf8" font-family="Inter, sans-serif" font-size="10" font-weight="600" text-anchor="middle">ACTIVE</text>
    <rect x="630" y="50" width="105" height="22" rx="11" fill="#1e293b"/>
    <text x="682" y="65" fill="#94a3b8" font-family="Inter, sans-serif" font-size="10" text-anchor="middle">Fintech Core</text>
    
  <!-- Top Stat Cards -->
  <g transform="translate(70, 95)">
    <rect width="200" height="75" rx="10" fill="url(#cardGrad)" stroke="#1e3a8a" stroke-width="1"/>
    <text x="15" y="28" fill="#94a3b8" font-family="Inter, sans-serif" font-size="11">Total Active Loans</text>
    <text x="15" y="56" fill="#ffffff" font-family="Inter, sans-serif" font-size="20" font-weight="700">$4,850,200</text>
    <text x="145" y="56" fill="#10b981" font-family="Inter, sans-serif" font-size="11" font-weight="600">+18.4%</text>

    <rect x="215" width="210" height="75" rx="10" fill="url(#cardGrad)" stroke="#1e3a8a" stroke-width="1"/>
    <text x="230" y="28" fill="#94a3b8" font-family="Inter, sans-serif" font-size="11">Monthly Disbursed</text>
    <text x="230" y="56" fill="#ffffff" font-family="Inter, sans-serif" font-size="20" font-weight="700">$892,400</text>
    <text x="365" y="56" fill="#38bdf8" font-family="Inter, sans-serif" font-size="11" font-weight="600">324 Apps</text>

    <rect x="440" width="220" height="75" rx="10" fill="url(#cardGrad)" stroke="#1e3a8a" stroke-width="1"/>
    <text x="455" y="28" fill="#94a3b8" font-family="Inter, sans-serif" font-size="11">Collection Rate (EMI)</text>
    <text x="455" y="56" fill="#ffffff" font-family="Inter, sans-serif" font-size="20" font-weight="700">98.6%</text>
    <rect x="575" y="42" width="70" height="18" rx="9" fill="#10b981" fill-opacity="0.2"/>
    <text x="610" y="55" fill="#10b981" font-family="Inter, sans-serif" font-size="9" font-weight="700" text-anchor="middle">ON TRACK</text>
  </g>

  <!-- Middle Pipeline Flow -->
  <g transform="translate(70, 185)">
    <rect width="660" height="60" rx="10" fill="url(#cardGrad)" stroke="#1e3a8a" stroke-width="1"/>
    <text x="15" y="20" fill="#38bdf8" font-family="Inter, sans-serif" font-size="10" font-weight="700">LOAN ORIGINATION PIPELINE</text>
    
    <rect x="15" y="28" width="115" height="24" rx="6" fill="#0284c7"/>
    <text x="72" y="44" fill="#ffffff" font-family="Inter, sans-serif" font-size="10" font-weight="600" text-anchor="middle">1. Application</text>

    <rect x="145" y="28" width="115" height="24" rx="6" fill="#0369a1"/>
    <text x="202" y="44" fill="#ffffff" font-family="Inter, sans-serif" font-size="10" font-weight="600" text-anchor="middle">2. KYC &amp; Credit</text>

    <rect x="275" y="28" width="115" height="24" rx="6" fill="#075985"/>
    <text x="332" y="44" fill="#ffffff" font-family="Inter, sans-serif" font-size="10" font-weight="600" text-anchor="middle">3. Underwriting</text>

    <rect x="405" y="28" width="115" height="24" rx="6" fill="#0c4a6e"/>
    <text x="462" y="44" fill="#ffffff" font-family="Inter, sans-serif" font-size="10" font-weight="600" text-anchor="middle">4. Approval</text>

    <rect x="535" y="28" width="110" height="24" rx="6" fill="#10b981"/>
    <text x="590" y="44" fill="#ffffff" font-family="Inter, sans-serif" font-size="10" font-weight="600" text-anchor="middle">5. Disbursed</text>
  </g>

  <!-- Bottom Details -->
  <g transform="translate(70, 260)">
    <rect width="250" height="275" rx="10" fill="url(#cardGrad)" stroke="#1e3a8a" stroke-width="1"/>
    <text x="15" y="28" fill="#ffffff" font-family="Inter, sans-serif" font-size="13" font-weight="700">AI Credit Assessment</text>
    
    <path d="M 45 160 A 80 80 0 0 1 205 160" fill="none" stroke="#1e293b" stroke-width="16" stroke-linecap="round"/>
    <path d="M 45 160 A 80 80 0 0 1 185 95" fill="none" stroke="url(#cyanGrad)" stroke-width="16" stroke-linecap="round"/>
    <text x="125" y="145" fill="#ffffff" font-family="Inter, sans-serif" font-size="28" font-weight="800" text-anchor="middle">785</text>
    <text x="125" y="165" fill="#10b981" font-family="Inter, sans-serif" font-size="11" font-weight="600" text-anchor="middle">EXCELLENT SCORE</text>
    
    <rect x="25" y="195" width="200" height="30" rx="6" fill="#081432"/>
    <text x="35" y="214" fill="#94a3b8" font-family="Inter, sans-serif" font-size="10">Default Risk Ratio</text>
    <text x="215" y="214" fill="#10b981" font-family="Inter, sans-serif" font-size="10" font-weight="700" text-anchor="end">0.42% (Low)</text>

    <rect x="25" y="232" width="200" height="30" rx="6" fill="#081432"/>
    <text x="35" y="251" fill="#94a3b8" font-family="Inter, sans-serif" font-size="10">Auto-Sanction Limit</text>
    <text x="215" y="251" fill="#38bdf8" font-family="Inter, sans-serif" font-size="10" font-weight="700" text-anchor="end">$120,000</text>

    <rect x="265" width="395" height="275" rx="10" fill="url(#cardGrad)" stroke="#1e3a8a" stroke-width="1"/>
    <text x="280" y="28" fill="#ffffff" font-family="Inter, sans-serif" font-size="13" font-weight="700">Recent Loan Applications</text>

    <rect x="280" y="42" width="365" height="25" rx="4" fill="#081432"/>
    <text x="290" y="58" fill="#64748b" font-family="Inter, sans-serif" font-size="10" font-weight="600">APPLICANT</text>
    <text x="400" y="58" fill="#64748b" font-family="Inter, sans-serif" font-size="10" font-weight="600">AMOUNT</text>
    <text x="490" y="58" fill="#64748b" font-family="Inter, sans-serif" font-size="10" font-weight="600">TENURE</text>
    <text x="580" y="58" fill="#64748b" font-family="Inter, sans-serif" font-size="10" font-weight="600">STATUS</text>

    <text x="290" y="90" fill="#e2e8f0" font-family="Inter, sans-serif" font-size="11" font-weight="600">Apex Corp Ltd</text>
    <text x="400" y="90" fill="#ffffff" font-family="Inter, sans-serif" font-size="11">$75,000</text>
    <text x="490" y="90" fill="#94a3b8" font-family="Inter, sans-serif" font-size="11">36 Mo</text>
    <rect x="575" y="77" width="60" height="18" rx="4" fill="#10b981" fill-opacity="0.2"/>
    <text x="605" y="90" fill="#10b981" font-family="Inter, sans-serif" font-size="9" font-weight="700" text-anchor="middle">APPROVED</text>
    <line x1="280" y1="104" x2="645" y2="104" stroke="#1e293b" stroke-width="1"/>

    <text x="290" y="128" fill="#e2e8f0" font-family="Inter, sans-serif" font-size="11" font-weight="600">Nova Retail Inc</text>
    <text x="400" y="128" fill="#ffffff" font-family="Inter, sans-serif" font-size="11">$140,000</text>
    <text x="490" y="128" fill="#94a3b8" font-family="Inter, sans-serif" font-size="11">60 Mo</text>
    <rect x="575" y="115" width="60" height="18" rx="4" fill="#0284c7" fill-opacity="0.2"/>
    <text x="605" y="128" fill="#38bdf8" font-family="Inter, sans-serif" font-size="9" font-weight="700" text-anchor="middle">UNDERWRITE</text>
    <line x1="280" y1="142" x2="645" y2="142" stroke="#1e293b" stroke-width="1"/>

    <text x="290" y="166" fill="#e2e8f0" font-family="Inter, sans-serif" font-size="11" font-weight="600">Starlight Tech</text>
    <text x="400" y="166" fill="#ffffff" font-family="Inter, sans-serif" font-size="11">$32,000</text>
    <text x="490" y="166" fill="#94a3b8" font-family="Inter, sans-serif" font-size="11">24 Mo</text>
    <rect x="575" y="153" width="60" height="18" rx="4" fill="#10b981" fill-opacity="0.2"/>
    <text x="605" y="166" fill="#10b981" font-family="Inter, sans-serif" font-size="9" font-weight="700" text-anchor="middle">DISBURSED</text>
    <line x1="280" y1="180" x2="645" y2="180" stroke="#1e293b" stroke-width="1"/>

    <rect x="280" y="200" width="365" height="55" rx="6" fill="#081432"/>
    <text x="290" y="222" fill="#94a3b8" font-family="Inter, sans-serif" font-size="10">Automated Repayment &amp; Reconciliation</text>
    <rect x="290" y="232" width="260" height="8" rx="4" fill="#1e293b"/>
    <rect x="290" y="232" width="245" height="8" rx="4" fill="url(#cyanGrad)"/>
    <text x="635" y="240" fill="#10b981" font-family="Inter, sans-serif" font-size="11" font-weight="700" text-anchor="end">98.6%</text>
  </g>

</svg>