<svg xmlns="http://www.w3.org/2000/svg" viewBox="0 0 800 600" width="800" height="600">
  <defs>
    <linearGradient id="bg" x1="0%" y1="0%" x2="100%" y2="100%">
      <stop offset="0%" stop-color="#040b1e"/>
      <stop offset="50%" stop-color="#061334"/>
      <stop offset="100%" stop-color="#020716"/>
    </linearGradient>
    <linearGradient id="cardGrad" x1="0%" y1="0%" x2="0%" y2="100%">
      <stop offset="0%" stop-color="#0f2354"/>
      <stop offset="100%" stop-color="#0a193c"/>
    </linearGradient>
    <linearGradient id="cyanGrad" x1="0%" y1="0%" x2="100%" y2="0%">
      <stop offset="0%" stop-color="#00bfff"/>
      <stop offset="100%" stop-color="#3b82f6"/>
    </linearGradient>
    <linearGradient id="purpleGrad" x1="0%" y1="0%" x2="100%" y2="0%">
      <stop offset="0%" stop-color="#8b5cf6"/>
      <stop offset="100%" stop-color="#ec4899"/>
    </linearGradient>
    <linearGradient id="greenGrad" x1="0%" y1="0%" x2="100%" y2="0%">
      <stop offset="0%" stop-color="#10b981"/>
      <stop offset="100%" stop-color="#059669"/>
    </linearGradient>
    <linearGradient id="orangeGrad" x1="0%" y1="0%" x2="100%" y2="0%">
      <stop offset="0%" stop-color="#f59e0b"/>
      <stop offset="100%" stop-color="#d97706"/>
    </linearGradient>
    <filter id="glow-subtle" x="-10%" y="-10%" width="120%" height="120%">
      <feDropShadow dx="0" dy="8" stdDeviation="16" flood-color="#00bfff" flood-opacity="0.18"/>
    </filter>
  </defs>

  <!-- Background -->
  <rect width="800" height="600" fill="url(#bg)"/>

  
    <!-- Circuit lines in bg -->
    <path d="M 30 100 L 90 100 L 120 70 L 200 70" stroke="#0ea5e9" stroke-width="1.5" stroke-opacity="0.35" fill="none"/>
    <circle cx="200" cy="70" r="3" fill="#38bdf8"/>
    <path d="M 770 120 L 710 120 L 680 90 L 620 90" stroke="#0ea5e9" stroke-width="1.5" stroke-opacity="0.35" fill="none"/>
    <circle cx="620" cy="90" r="3" fill="#38bdf8"/>
    <path d="M 40 500 L 100 500 L 130 530 L 220 530" stroke="#0ea5e9" stroke-width="1.5" stroke-opacity="0.35" fill="none"/>
    <circle cx="220" cy="530" r="3" fill="#38bdf8"/>
    <path d="M 760 480 L 700 480 L 670 510 L 590 510" stroke="#0ea5e9" stroke-width="1.5" stroke-opacity="0.35" fill="none"/>
    <circle cx="590" cy="510" r="3" fill="#38bdf8"/>

    <!-- Main Window Mockup -->
    <rect x="50" y="40" width="700" height="520" rx="16" fill="#081432" stroke="#00bfff" stroke-width="1.5" filter="url(#glow-subtle)"/>
    <rect x="50" y="40" width="700" height="42" rx="16" fill="#0c1e4a"/>
    <rect x="50" y="70" width="700" height="12" fill="#0c1e4a"/>

    <!-- Window Dots -->
    <circle cx="75" cy="61" r="5" fill="#ef4444"/>
    <circle cx="92" cy="61" r="5" fill="#f59e0b"/>
    <circle cx="109" cy="61" r="5" fill="#10b981"/>

    <!-- App Title & Badges -->
    <text x="135" y="66" fill="#ffffff" font-family="Inter, system-ui, sans-serif" font-weight="700" font-size="13">CUSTOM ENTERPRISE SAAS PLATFORMS</text>
    <rect x="540" y="50" width="80" height="22" rx="11" fill="#0284c7" fill-opacity="0.25" stroke="#38bdf8" stroke-width="0.8"/>
    <text x="580" y="65" fill="#38bdf8" font-family="Inter, sans-serif" font-size="10" font-weight="600" text-anchor="middle">ACTIVE</text>
    <rect x="630" y="50" width="105" height="22" rx="11" fill="#1e293b"/>
    <text x="682" y="65" fill="#94a3b8" font-family="Inter, sans-serif" font-size="10" text-anchor="middle">Cloud Architecture</text>
    
  <!-- Top Stat Cards -->
  <g transform="translate(70, 95)">
    <rect width="150" height="70" rx="8" fill="url(#cardGrad)" stroke="#1e3a8a" stroke-width="1"/>
    <text x="12" y="25" fill="#94a3b8" font-family="Inter, sans-serif" font-size="10">Cloud Uptime SLA</text>
    <text x="12" y="52" fill="#10b981" font-family="Inter, sans-serif" font-size="18" font-weight="700">99.99%</text>

    <rect x="165" width="150" height="70" rx="8" fill="url(#cardGrad)" stroke="#1e3a8a" stroke-width="1"/>
    <text x="177" y="25" fill="#94a3b8" font-family="Inter, sans-serif" font-size="10">API Latency</text>
    <text x="177" y="52" fill="#38bdf8" font-family="Inter, sans-serif" font-size="18" font-weight="700">22 ms</text>

    <rect x="330" width="150" height="70" rx="8" fill="url(#cardGrad)" stroke="#1e3a8a" stroke-width="1"/>
    <text x="342" y="25" fill="#94a3b8" font-family="Inter, sans-serif" font-size="10">Multi-Tenant Clusters</text>
    <text x="342" y="52" fill="#ffffff" font-family="Inter, sans-serif" font-size="18" font-weight="700">64 Nodes</text>

    <rect x="495" width="165" height="70" rx="8" fill="url(#cardGrad)" stroke="#1e3a8a" stroke-width="1"/>
    <text x="507" y="25" fill="#94a3b8" font-family="Inter, sans-serif" font-size="10">Security Grade</text>
    <text x="507" y="52" fill="#10b981" font-family="Inter, sans-serif" font-size="18" font-weight="700">SOC2 / ISO</text>
  </g>

  <!-- Architecture Overview & Microservices -->
  <g transform="translate(70, 180)">
    <rect width="660" height="355" rx="10" fill="url(#cardGrad)" stroke="#1e3a8a" stroke-width="1"/>
    <text x="20" y="28" fill="#ffffff" font-family="Inter, sans-serif" font-size="13" font-weight="700">High-Availability Cloud Microservices Architecture</text>

    <!-- Cloud Nodes Row -->
    <rect x="25" y="45" width="145" height="120" rx="8" fill="#081432" stroke="#0284c7" stroke-width="1"/>
    <text x="35" y="68" fill="#38bdf8" font-family="Inter, sans-serif" font-size="11" font-weight="700">API Gateway &amp; CDN</text>
    <text x="35" y="90" fill="#ffffff" font-family="Inter, sans-serif" font-size="12">Global Edge</text>
    <text x="35" y="110" fill="#94a3b8" font-family="Inter, sans-serif" font-size="9">Rate Limiting &amp; WAF</text>
    <rect x="35" y="125" width="80" height="18" rx="4" fill="#10b981" fill-opacity="0.2"/>
    <text x="75" y="138" fill="#10b981" font-family="Inter, sans-serif" font-size="8" font-weight="700" text-anchor="middle">ACTIVE</text>

    <rect x="190" y="45" width="145" height="120" rx="8" fill="#081432" stroke="#0284c7" stroke-width="1"/>
    <text x="200" y="68" fill="#38bdf8" font-family="Inter, sans-serif" font-size="11" font-weight="700">Auth &amp; Multi-Tenancy</text>
    <text x="200" y="90" fill="#ffffff" font-family="Inter, sans-serif" font-size="12">Tenant Isolation</text>
    <text x="200" y="110" fill="#94a3b8" font-family="Inter, sans-serif" font-size="9">Role-Based Access (RBAC)</text>
    <rect x="200" y="125" width="80" height="18" rx="4" fill="#10b981" fill-opacity="0.2"/>
    <text x="240" y="138" fill="#10b981" font-family="Inter, sans-serif" font-size="8" font-weight="700" text-anchor="middle">ACTIVE</text>

    <rect x="355" y="45" width="145" height="120" rx="8" fill="#081432" stroke="#0284c7" stroke-width="1"/>
    <text x="365" y="68" fill="#38bdf8" font-family="Inter, sans-serif" font-size="11" font-weight="700">Core Business Logic</text>
    <text x="365" y="90" fill="#ffffff" font-family="Inter, sans-serif" font-size="12">Microservices</text>
    <text x="365" y="110" fill="#94a3b8" font-family="Inter, sans-serif" font-size="9">Auto-scaling Pods</text>
    <rect x="365" y="125" width="80" height="18" rx="4" fill="#10b981" fill-opacity="0.2"/>
    <text x="405" y="138" fill="#10b981" font-family="Inter, sans-serif" font-size="8" font-weight="700" text-anchor="middle">ACTIVE</text>

    <rect x="520" y="45" width="115" height="120" rx="8" fill="#081432" stroke="#0284c7" stroke-width="1"/>
    <text x="530" y="68" fill="#38bdf8" font-family="Inter, sans-serif" font-size="11" font-weight="700">Database Layer</text>
    <text x="530" y="90" fill="#ffffff" font-family="Inter, sans-serif" font-size="12">Postgres &amp; Redis</text>
    <text x="530" y="110" fill="#94a3b8" font-family="Inter, sans-serif" font-size="9">Read Replicas</text>
    <rect x="530" y="125" width="70" height="18" rx="4" fill="#10b981" fill-opacity="0.2"/>
    <text x="565" y="138" fill="#10b981" font-family="Inter, sans-serif" font-size="8" font-weight="700" text-anchor="middle">HEALTHY</text>

    <!-- Bottom: Tenant Analytics & Telemetry -->
    <rect x="25" y="180" width="610" height="155" rx="8" fill="#081432"/>
    <text x="40" y="205" fill="#ffffff" font-family="Inter, sans-serif" font-size="11" font-weight="700">Real-Time Cloud Telemetry</text>

    <text x="40" y="235" fill="#94a3b8" font-family="Inter, sans-serif" font-size="10">CPU Load (Kubernetes Cluster)</text>
    <rect x="40" y="245" width="260" height="8" rx="4" fill="#1e293b"/>
    <rect x="40" y="245" width="90" height="8" rx="4" fill="url(#cyanGrad)"/>
    <text x="310" y="253" fill="#38bdf8" font-family="Inter, sans-serif" font-size="10" font-weight="700">34%</text>

    <text x="40" y="280" fill="#94a3b8" font-family="Inter, sans-serif" font-size="10">Global Database Replication Lag</text>
    <rect x="40" y="290" width="260" height="8" rx="4" fill="#1e293b"/>
    <rect x="40" y="290" width="30" height="8" rx="4" fill="url(#greenGrad)"/>
    <text x="310" y="298" fill="#10b981" font-family="Inter, sans-serif" font-size="10" font-weight="700">4 ms</text>

    <rect x="360" y="215" width="255" height="100" rx="6" fill="#0c1e4a"/>
    <text x="375" y="240" fill="#38bdf8" font-family="Inter, sans-serif" font-size="11" font-weight="700">Enterprise Security Stack</text>
    <text x="375" y="262" fill="#10b981" font-family="Inter, sans-serif" font-size="10">✓ End-to-end AES-256 Encryption</text>
    <text x="375" y="282" fill="#10b981" font-family="Inter, sans-serif" font-size="10">✓ Automated CI/CD Deployment</text>
    <text x="375" y="302" fill="#10b981" font-family="Inter, sans-serif" font-size="10">✓ Custom White-label Domains</text>
  </g>

</svg>